<?xml version="1.0" standalone="no"?>
<!DOCTYPE svg PUBLIC "-//W3C//DTD SVG 20010904//EN"
 "http://www.w3.org/TR/2001/REC-SVG-20010904/DTD/svg10.dtd">
<svg version="1.0" xmlns="http://www.w3.org/2000/svg"
 width="1025.000000pt" height="750.000000pt" viewBox="0 0 1025.000000 750.000000"
 preserveAspectRatio="xMidYMid meet">

<g transform="translate(0.000000,750.000000) scale(0.100000,-0.100000)"
fill="#000000" stroke="none">
<path d="M4190 6865 c-9 -11 -10 -72 -5 -258 4 -140 4 -251 -1 -260 -7 -12
-27 26 -79 150 -143 339 -151 358 -169 361 -10 2 -42 -6 -72 -19 l-55 -22 -16
23 c-18 25 -39 24 -117 -9 -42 -19 -48 -24 -44 -46 l5 -25 -538 0 -539 0 0
-90 0 -90 -90 0 -90 0 0 -185 0 -185 -109 0 c-63 0 -112 -4 -116 -10 -4 -7
438 -10 1320 -10 882 0 1324 3 1320 10 -3 6 -50 10 -104 10 l-99 0 -42 223
c-23 122 -50 260 -59 307 l-17 85 -33 3 c-23 2 -43 -3 -62 -17 -16 -12 -40
-21 -54 -21 -22 0 -25 4 -25 35 0 24 -6 37 -19 45 -28 15 -77 12 -91 -5z m90
-330 l0 -325 -40 0 -40 0 0 325 0 325 40 0 40 0 0 -325z m-486 257 c11 -26 64
-152 118 -281 54 -129 98 -240 98 -246 0 -13 -107 -61 -115 -53 -10 10 -236
553 -238 571 -1 14 10 24 43 37 66 27 73 25 94 -28z m171 -12 c12 -30 66 -158
119 -284 73 -172 94 -231 86 -241 -6 -8 -32 -21 -58 -30 -44 -14 -48 -14 -59
2 -7 9 -13 20 -13 24 0 4 -47 119 -105 255 -58 136 -108 258 -111 271 -5 20 0
26 37 43 64 29 77 24 104 -40z m499 -2 c62 -323 104 -553 101 -556 -2 -2 -18
-5 -36 -5 l-33 -2 -55 288 c-58 308 -58 306 -5 307 17 0 23 -8 28 -32z m-94
-288 l0 -280 -34 0 c-27 0 -35 5 -39 23 -3 16 -1 479 2 530 1 4 17 7 36 7 l35
0 0 -280z m-712 182 c2 -38 -2 -69 -9 -78 -9 -11 -52 -14 -215 -14 -187 0
-226 5 -194 25 12 7 13 94 2 111 -4 7 -16 14 -27 17 -11 3 84 4 210 3 l230 -1
3 -63z m-444 42 c12 -4 16 -20 16 -55 l0 -49 -325 0 -325 0 0 49 0 50 48 4
c82 6 570 7 586 1z m566 -284 c45 -107 84 -201 87 -207 4 -10 -37 -13 -183
-13 l-189 0 -1 85 c-1 47 -2 91 -2 98 0 6 1 48 2 92 l3 80 78 1 c85 1 105 12
105 63 1 36 5 28 100 -199z m658 -17 l39 -203 -44 0 -43 0 1 213 c0 116 2 208
5 202 2 -5 21 -101 42 -212z m-960 77 c2 -52 0 -67 -14 -77 -14 -10 -121 -13
-488 -12 -259 1 -496 4 -526 9 -33 4 72 8 267 9 278 1 324 3 337 17 19 18 21
75 4 92 -9 9 -97 12 -335 12 -211 0 -323 4 -323 10 0 7 181 9 538 8 l537 -3 3
-65z m-430 -4 c2 -16 -2 -32 -10 -37 -7 -5 -154 -9 -325 -9 l-313 0 0 40 0 40
323 -2 322 -3 3 -29z m413 -107 c16 -8 19 -21 19 -77 0 -40 -5 -73 -12 -80 -9
-9 -74 -12 -238 -11 -124 1 -214 4 -200 6 34 7 40 19 40 86 0 46 -4 59 -17 65
-30 12 39 18 221 20 97 1 177 -3 187 -9z m-413 -81 l3 -58 -326 0 -325 0 0 60
0 60 323 -2 322 -3 3 -57z m986 -73 c4 -12 -3 -15 -32 -15 l-37 1 25 14 c32
18 37 18 44 0z m151 -5 c-3 -5 -15 -10 -26 -10 -11 0 -17 5 -14 10 3 6 15 10
26 10 11 0 17 -4 14 -10z"/>
<path d="M2845 6330 c-4 -6 28 -10 90 -10 62 0 94 4 90 10 -3 6 -44 10 -90 10
-46 0 -87 -4 -90 -10z"/>
<path d="M2730 6260 c0 -6 46 -10 119 -10 69 0 122 4 126 10 4 6 -38 10 -119
10 -77 0 -126 -4 -126 -10z"/>
<path d="M5370 6857 c-13 -7 -35 -28 -47 -46 l-23 -34 0 -488 c0 -308 -4 -489
-10 -489 -5 0 -56 -46 -112 -101 -153 -150 -306 -249 -386 -249 l-47 0 -1 53
c0 28 -1 61 -2 72 -1 11 0 112 3 225 2 113 1 213 -1 223 -5 16 -32 17 -432 15
l-427 -3 -3 -71 -3 -72 -32 -6 c-51 -9 -79 -34 -71 -59 4 -12 8 -67 10 -122 1
-55 2 -107 3 -115 0 -8 -2 -42 -5 -75 -4 -41 -2 -57 4 -50 6 6 12 30 14 55 l3
45 95 6 c163 11 789 10 811 -1 23 -13 27 -91 5 -109 -10 -8 -168 -11 -570 -11
l-556 1 0 289 c0 282 0 289 -20 295 -25 8 -98 -3 -106 -16 -3 -5 0 -9 5 -9 8
0 11 -74 11 -227 0 -130 -4 -223 -9 -218 -8 9 -49 104 -186 432 -25 61 -52
113 -58 116 -7 3 -41 -7 -77 -21 -45 -18 -65 -22 -68 -14 -2 7 -10 19 -18 27
-13 12 -22 11 -71 -8 -42 -15 -58 -18 -61 -9 -11 35 -31 40 -139 37 -60 -2
-112 -4 -118 -5 -5 -1 -27 2 -47 5 -33 7 -38 5 -55 -22 -15 -25 -22 -28 -44
-22 -15 3 -31 4 -37 0 -12 -7 -164 -573 -164 -608 0 -22 -4 -23 -84 -23 -45 0
-86 -4 -89 -10 -4 -7 439 -10 1322 -10 l1328 0 -65 -44 c-197 -132 -272 -255
-274 -451 -1 -80 4 -114 22 -169 31 -94 66 -159 108 -206 l36 -40 -36 -127
c-20 -71 -39 -143 -42 -161 l-7 -32 -234 2 -235 3 -94 204 c-52 112 -94 206
-94 208 0 1 63 3 140 3 l140 0 0 35 0 35 -641 0 -640 0 7 23 c4 12 35 93 71
181 49 123 61 161 52 172 -9 11 -60 14 -254 14 -217 0 -245 -2 -264 -17 -13
-11 -41 -76 -73 -168 l-53 -150 -135 -5 c-123 -5 -136 -7 -144 -25 -8 -19 -19
-21 -125 -23 -64 -1 -122 2 -129 6 -18 12 193 101 256 109 44 5 52 3 84 -26
30 -26 41 -30 69 -25 49 9 76 38 84 89 10 71 -39 138 -121 165 -53 18 -177 8
-313 -25 -161 -39 -173 -31 -236 171 -35 112 -42 149 -27 156 4 2 28 28 52 58
25 30 62 74 82 97 21 24 38 49 38 57 0 8 18 49 41 92 37 69 41 83 37 131 -10
118 -97 140 -263 69 -184 -78 -225 -80 -436 -20 -199 56 -283 56 -405 -2 -219
-104 -282 -384 -124 -557 52 -57 135 -107 210 -127 l45 -12 -62 -23 c-88 -31
-165 -81 -231 -146 -232 -230 -241 -602 -21 -843 98 -107 218 -171 367 -196
l72 -12 0 -194 c0 -123 4 -194 10 -194 6 0 10 71 10 193 l0 193 93 17 c112 21
230 77 304 142 34 30 60 45 74 43 19 -3 15 -12 -43 -108 -36 -58 -81 -131
-102 -162 -27 -43 -33 -58 -21 -58 8 0 15 -2 15 -4 0 -3 -37 -70 -81 -150
l-82 -146 -204 0 c-126 0 -212 -4 -224 -11 -11 -6 -28 -29 -38 -52 -10 -23
-26 -48 -35 -56 -36 -30 -7 -101 42 -101 52 0 72 76 27 106 -28 18 -27 43 3
77 13 15 37 17 214 17 109 0 198 -3 198 -6 0 -3 -16 -34 -35 -68 -42 -75 -44
-104 -9 -145 l26 -31 444 0 c244 0 444 -3 444 -7 0 -5 -19 -56 -41 -115 l-41
-107 -42 -5 c-352 -45 -533 -83 -640 -137 -167 -82 -368 -308 -560 -630 -204
-341 -296 -579 -296 -769 0 -168 76 -280 229 -336 25 -10 47 -18 49 -19 1 -1
-36 -89 -83 -196 -85 -193 -108 -254 -87 -234 17 16 400 899 447 1030 23 66
63 175 89 242 45 118 54 176 40 231 -12 44 -22 21 -17 -38 6 -57 1 -73 -68
-260 l-74 -200 -237 0 c-131 0 -238 3 -238 6 0 13 75 184 121 277 221 441 484
773 697 881 88 45 337 101 537 121 33 3 74 8 92 11 26 4 33 1 38 -17 4 -12 26
-29 52 -41 89 -39 304 -8 369 53 23 21 29 22 166 16 308 -13 539 -75 648 -173
132 -120 248 -414 296 -754 16 -117 34 -178 34 -117 l0 27 343 -1 342 -1 -75
-26 c-72 -26 -86 -27 -345 -32 l-270 -5 -5 -29 c-5 -28 -20 -36 -415 -201
-247 -103 -411 -177 -413 -186 -1 -8 8 -52 22 -99 l24 -84 -115 -275 c-131
-313 -145 -351 -134 -351 5 0 64 133 132 295 67 162 125 295 128 295 3 0 24
-35 45 -77 51 -98 142 -193 222 -231 54 -25 68 -27 174 -26 94 1 131 6 205 28
197 60 349 136 677 338 l183 113 215 7 c226 7 268 14 307 50 26 24 31 77 12
125 -7 15 -12 56 -13 91 l-2 62 -64 59 c-36 33 -82 67 -102 77 -33 15 -38 22
-38 51 l0 33 51 0 c31 0 48 4 44 10 -4 6 -205 10 -570 10 -310 0 -566 3 -568
8 -3 4 -8 35 -12 70 l-7 62 514 0 513 0 31 -37 c17 -20 33 -32 36 -27 3 5 -57
79 -134 164 -76 85 -161 189 -188 230 -70 107 -81 122 -88 116 -3 -3 15 -40
41 -81 25 -41 41 -75 36 -75 -42 0 -122 70 -144 125 -7 18 -9 18 -12 2 -6 -22
31 -81 65 -105 15 -11 50 -27 77 -36 38 -13 61 -30 99 -74 l49 -57 -454 -3
c-250 -1 -459 0 -465 2 -6 2 -16 30 -23 62 -34 152 -109 321 -191 428 l-50 67
0 414 0 414 211 3 c209 3 212 3 220 -19 34 -89 161 -81 185 11 14 56 -38 116
-99 116 -30 0 -75 -35 -87 -66 l-10 -24 -220 0 -220 0 0 -415 0 -415 -65 35
c-126 66 -340 111 -583 122 l-143 6 6 25 c3 13 9 37 12 53 5 28 7 29 67 29 83
0 192 25 232 52 105 72 83 189 -91 478 -35 59 -67 114 -70 122 -4 9 5 27 19
43 29 32 33 61 11 92 -13 18 -12 26 7 72 19 44 20 57 11 91 l-10 40 1417 0
c779 0 1445 3 1479 6 39 5 57 10 49 15 -7 5 -681 9 -1498 9 -1469 0 -1486 0
-1550 21 -115 36 -190 6 -264 -106 -39 -58 -38 -74 5 -75 74 -1 76 -206 2
-356 -37 -76 -118 -170 -197 -229 l-66 -50 35 -18 c28 -14 35 -23 35 -47 l0
-30 -440 0 c-427 0 -441 1 -460 20 -27 27 -25 50 10 120 l30 59 50 -2 c27 -1
50 -6 50 -11 0 -22 502 12 526 36 10 11 -3 10 -141 -7 -175 -22 -436 -17 -461
8 -3 3 34 76 81 162 77 137 90 156 109 151 53 -13 219 -36 301 -42 l90 -6 29
52 c41 75 80 116 155 160 55 33 76 40 119 40 l52 0 0 74 c0 81 22 129 70 153
36 18 3344 19 3379 0 13 -6 34 -25 45 -40 21 -28 21 -34 26 -960 3 -513 8
-921 12 -907 4 14 8 343 8 731 l0 707 86 36 c47 20 90 36 94 36 19 0 18 19 0
81 -11 35 -20 67 -20 72 0 4 19 -7 42 -23 89 -65 202 -74 300 -25 l48 24 0
-660 c0 -438 3 -658 10 -654 7 4 10 267 10 756 0 823 -2 792 60 824 26 13 225
15 1695 15 1470 0 1669 -2 1695 -15 63 -33 60 23 60 -1070 l0 -995 -327 0
c-195 0 -334 -4 -343 -10 -10 -6 106 -10 338 -10 l352 0 -2 1020 -3 1020 -38
37 -37 38 -258 3 -258 3 4 28 c3 23 15 33 64 57 113 54 175 151 200 311 40
255 -142 706 -337 838 -75 51 -142 73 -276 90 l-106 15 -41 -39 c-90 -86 -256
-75 -310 19 -20 35 -37 37 -162 15 -47 -8 -91 -15 -97 -15 -10 0 -13 141 -15
634 -3 626 -3 635 -24 663 -11 15 -32 34 -45 40 -35 18 -2663 18 -2699 0z
m2712 -36 l33 -29 0 -642 0 -642 -115 -34 c-349 -103 -385 -105 -517 -39 -68
34 -112 66 -182 131 l-91 86 0 279 0 279 -70 0 -70 0 0 -205 c0 -113 -3 -205
-6 -205 -3 0 -38 25 -77 56 -98 77 -143 99 -173 85 -43 -19 -29 -67 38 -137
l40 -41 -34 -47 c-28 -41 -33 -57 -36 -119 -3 -62 -1 -76 18 -99 12 -16 29
-28 37 -28 12 0 9 7 -11 25 -41 38 -31 50 14 15 22 -17 39 -34 38 -38 -1 -4
32 -43 75 -87 66 -70 76 -85 77 -117 l0 -36 50 -4 c35 -2 46 0 37 7 -7 6 -57
59 -110 119 l-97 108 30 35 c29 32 41 83 20 83 -5 0 -9 -10 -7 -22 1 -17 -4
-24 -21 -26 -52 -8 -111 90 -104 170 1 10 16 25 33 33 l30 16 -66 70 c-38 41
-65 78 -63 87 13 67 149 -28 447 -310 l84 -80 -6 -58 c-3 -32 -17 -85 -32
-119 -26 -58 -82 -121 -107 -121 -6 0 -1 -11 12 -25 l23 -25 -420 0 -420 0 5
30 c4 29 5 30 63 30 l59 0 0 295 0 295 -70 0 -70 0 0 -283 c0 -156 -3 -287 -6
-290 -4 -4 -20 1 -35 10 -25 15 -33 16 -62 4 -74 -31 -164 -61 -185 -61 -20 0
-18 4 18 36 42 39 48 59 26 89 -13 18 -15 18 -67 -8 -30 -15 -85 -38 -124 -51
-38 -13 -78 -27 -87 -31 -17 -7 -18 23 -18 555 0 371 -3 559 -10 555 -6 -4
-10 -207 -10 -575 l0 -569 -51 -68 c-28 -37 -55 -72 -59 -76 -6 -7 -175 45
-188 57 -2 2 4 20 12 40 14 34 18 36 59 36 89 0 124 76 137 295 4 77 13 158
20 181 12 36 11 45 -6 80 -15 31 -33 47 -92 77 -99 52 -154 57 -250 24 l-72
-25 0 480 0 480 34 34 34 34 1331 0 1331 0 32 -29z m-5434 -720 c7 -4 13 -16
13 -27 1 -31 -9 -128 -14 -144 -3 -8 -20 -116 -37 -240 -17 -123 -34 -228 -36
-232 -7 -11 -46 -10 -64 2 -12 8 -12 28 7 162 12 84 18 157 14 161 -8 8 -35
-145 -47 -270 -7 -61 -8 -63 -34 -63 -32 0 -34 -17 16 171 19 70 34 135 34
145 0 38 -18 -5 -44 -106 -53 -208 -53 -209 -84 -201 -33 9 -36 -11 39 276 92
351 85 333 114 327 14 -2 27 -8 30 -12 2 -4 -4 -40 -15 -79 -11 -39 -18 -84
-15 -99 3 -15 2 -21 -1 -13 -5 9 -11 4 -20 -19 -17 -39 -7 -63 12 -29 11 20
13 21 14 6 0 -11 5 -15 11 -11 6 3 9 22 7 40 -2 19 -1 34 2 34 4 0 12 44 19
98 7 53 17 105 22 115 10 18 36 22 57 8z m142 -11 c7 -12 9 -126 8 -327 l-3
-308 -50 0 -50 0 -3 315 c-1 173 0 320 3 327 2 8 21 13 44 13 30 0 43 -5 51
-20z m115 -310 l0 -325 -42 -3 -43 -3 0 324 c0 178 3 327 7 331 4 4 23 6 43 4
l35 -3 0 -325z m274 17 c67 -158 121 -290 121 -293 0 -5 -105 -54 -115 -54
-12 0 -259 590 -250 598 14 14 110 50 117 44 4 -4 61 -136 127 -295z m170 0
c67 -158 121 -290 121 -293 0 -6 -106 -54 -120 -54 -5 0 -12 10 -16 23 -4 12
-56 139 -116 282 -60 142 -110 268 -111 278 -1 13 12 24 53 42 30 13 58 20 62
17 3 -4 61 -137 127 -295z m221 -62 l0 -285 -35 0 -35 0 0 285 0 285 35 0 35
0 0 -285z m1160 220 l0 -65 -415 0 -415 0 0 65 0 65 415 0 415 0 0 -65z
m-1706 -191 c46 -109 93 -221 105 -247 12 -27 21 -53 21 -58 0 -5 -49 -9 -110
-9 l-110 0 0 262 c0 144 2 259 5 257 2 -3 42 -95 89 -205z m-354 -84 l0 -230
-38 0 -38 0 22 143 c12 78 27 181 34 230 7 48 14 87 16 87 2 0 4 -103 4 -230z
m2045 174 c10 -11 15 -29 13 -53 l-3 -36 -460 0 -460 0 -3 43 c-3 36 0 44 20
51 13 6 213 10 450 10 381 1 428 -1 443 -15z m4 -128 c7 -8 11 -37 9 -68 l-3
-53 -460 0 -460 0 -3 53 c-2 31 2 60 9 68 10 12 84 14 454 14 370 0 444 -2
454 -14z m-2961 -104 c57 -5 57 -4 41 -67 -24 -94 -110 -128 -163 -64 -14 17
-26 34 -26 39 0 4 -13 13 -30 19 -23 7 -30 16 -30 35 0 34 14 40 45 20 23 -15
27 -15 50 0 14 9 25 21 25 27 0 7 7 8 18 4 9 -4 41 -10 70 -13z m3940 -165
c-5 -97 -10 -134 -28 -175 -25 -59 -43 -72 -94 -72 l-35 0 14 48 c18 56 17 52
5 52 -5 0 -22 -42 -38 -92 l-29 -93 -59 3 c-32 2 -61 5 -63 8 -2 2 34 61 81
130 l84 127 -15 43 c-12 34 -13 47 -3 69 12 25 16 27 55 21 36 -5 48 -1 82 24
22 16 42 29 44 30 2 0 2 -55 -1 -123z m-4108 63 c0 -5 13 -25 30 -43 l30 -34
-33 -46 c-30 -43 -35 -45 -49 -31 -9 9 -39 24 -66 33 l-51 17 46 57 c33 40 53
57 70 57 13 0 23 -4 23 -10z m1730 -55 c11 -13 6 -15 -31 -15 -43 1 -44 1 -19
15 32 18 35 18 50 0z m160 -5 c0 -16 -7 -20 -35 -20 -42 0 -46 14 -7 28 39 15
42 14 42 -8z m-1936 -101 c35 -28 67 -93 105 -214 38 -121 67 -176 105 -194
24 -11 39 -10 112 6 l84 20 5 -21 c3 -12 11 -50 19 -86 8 -36 12 -68 8 -72
-16 -16 -192 -87 -244 -98 -168 -38 -341 110 -414 355 -19 66 -34 91 -34 59 0
-31 45 -157 76 -215 15 -27 42 -67 60 -87 l31 -37 -40 -82 -41 -83 -257 0
c-140 0 -258 3 -261 6 -14 13 179 347 293 506 91 127 169 211 222 237 57 28
135 28 171 0z m4580 -55 c4 -11 -11 -32 -46 -67 -39 -38 -49 -52 -37 -55 26
-5 139 24 199 52 55 26 86 22 61 -8 -14 -17 -117 -60 -180 -76 -23 -6 -41 -14
-37 -17 13 -13 103 12 183 52 85 42 113 45 100 11 -4 -9 -18 -16 -34 -16 -15
0 -55 -13 -89 -29 -34 -16 -80 -32 -102 -36 -23 -4 -45 -12 -48 -17 -11 -18
73 0 141 29 33 14 74 27 91 30 34 5 57 -14 27 -23 -10 -3 -49 -21 -88 -40 -50
-25 -83 -34 -117 -34 -29 0 -48 -4 -48 -11 0 -23 115 -3 176 30 89 48 114 40
75 -26 -35 -56 -119 -92 -253 -108 -64 -8 -78 -19 -109 -89 -11 -26 -24 -44
-28 -40 -4 5 -24 31 -45 57 -33 42 -125 119 -182 153 -18 10 -17 14 17 65 63
95 111 135 197 164 42 14 93 34 112 45 43 24 56 24 64 4z m1183 -183 c98 -60
223 -112 331 -139 61 -15 112 -30 112 -34 0 -4 -80 -6 -177 -4 -98 2 -437 4
-753 5 l-574 1 54 33 c59 35 90 82 90 134 l0 33 435 0 435 0 47 -29z m-1800
-32 c143 -32 285 -110 369 -201 23 -25 77 -98 121 -164 44 -65 133 -195 198
-289 65 -93 125 -185 134 -204 15 -32 15 -34 -9 -53 -50 -41 -60 -67 -60 -164
l0 -91 -52 -29 c-46 -25 -64 -29 -128 -29 -89 1 -135 21 -195 87 -22 24 -114
166 -205 315 -91 150 -171 275 -178 278 -16 6 -35 40 166 -295 148 -246 174
-297 195 -372 l24 -87 -86 -34 -86 -35 -5 193 c-5 176 -7 196 -26 222 -47 64
-36 63 -601 63 -362 0 -513 3 -513 11 0 17 39 169 61 235 l20 61 63 -34 c96
-50 201 -75 331 -76 153 -1 226 33 165 76 -31 22 -60 86 -60 132 0 89 58 250
147 412 l57 101 35 -5 c20 -3 73 -13 118 -24z m-4417 -13 c0 -3 -26 -47 -58
-98 -92 -147 -170 -289 -191 -348 -10 -30 -35 -88 -54 -129 -59 -121 -59 -187
2 -283 47 -75 97 -97 248 -113 71 -7 199 -17 285 -21 l158 -7 -63 -48 c-198
-154 -474 -166 -683 -30 -167 108 -273 301 -274 497 0 195 98 379 262 491 98
66 177 92 286 92 45 1 82 -1 82 -3z m7455 -109 c50 -28 115 -64 145 -80 127
-68 190 -109 190 -123 0 -37 -123 -303 -165 -359 -15 -19 -16 -19 -50 -1 -52
28 -272 205 -357 287 -35 34 -51 79 -28 79 5 0 33 -18 62 -40 29 -22 57 -40
62 -40 16 0 -36 49 -85 81 -60 38 -71 66 -37 92 22 17 24 22 15 47 -24 63 28
81 92 31 57 -45 121 -83 134 -78 6 2 -17 21 -52 43 -35 21 -75 49 -90 62 l-26
22 24 21 c32 26 52 21 166 -44z m-6317 14 c20 -10 46 -29 57 -41 l20 -23 -23
12 -24 13 26 -38 c27 -39 34 -74 16 -74 -5 0 -10 11 -10 24 0 13 -7 29 -15 36
-20 17 -19 0 1 -44 10 -19 14 -42 10 -52 -6 -15 -12 -10 -37 30 -35 55 -48 56
-25 1 9 -21 16 -41 16 -46 0 -17 -21 -9 -46 19 -23 24 -32 27 -82 25 -32 -1
-68 -4 -81 -5 -23 -3 -26 2 -43 76 -10 44 -16 81 -13 84 9 10 81 20 148 21 49
1 78 -4 105 -18z m5721 -282 c-77 -226 -89 -281 -69 -320 14 -25 39 -37 210
-99 224 -81 223 -79 28 -80 l-166 0 14 47 c18 58 17 73 -1 50 -7 -11 -17 -36
-20 -58 l-7 -39 -787 0 -787 0 -21 44 c-12 24 -78 124 -146 223 -68 98 -145
210 -171 249 l-47 70 25 55 c25 58 39 74 71 82 11 2 455 5 987 6 l967 1 -80
-231z m-6353 -9 c16 0 30 -19 38 -52 l6 -28 -121 0 c-66 0 -119 3 -117 8 2 4
19 37 37 73 l34 66 55 -34 c31 -18 61 -33 68 -33z m2554 -30 c0 -20 -7 -20
-1210 -20 -1203 0 -1210 0 -1210 20 0 20 7 20 1210 20 1203 0 1210 0 1210 -20z
m-2440 -15 l0 -25 1078 0 1078 0 52 -114 c29 -62 72 -157 97 -210 l44 -96
-815 2 -816 3 -57 99 c-79 140 -143 206 -249 258 l-85 43 -191 5 -191 5 -3 28
c-3 24 0 27 27 27 26 0 31 -4 31 -25z m882 -980 c41 -66 91 -150 111 -187 l36
-67 -32 -24 c-105 -79 -171 -60 -265 76 -71 103 -75 113 -61 139 17 32 131
190 134 186 1 -2 36 -57 77 -123z m-203 -243 c29 -29 67 -117 77 -180 4 -27
-4 -76 -30 -170 -20 -73 -36 -134 -36 -136 0 -2 -28 -16 -62 -32 -112 -50
-313 -44 -334 11 -3 8 14 66 39 127 l45 113 108 5 c143 7 174 25 174 103 0 33
-1 35 -46 40 -55 6 -77 25 -77 68 0 71 90 104 142 51z m-1605 -111 c28 -31 -2
-69 -45 -56 -33 11 -18 75 16 75 7 0 19 -8 29 -19z m3706 -1161 l38 -45 -500
-3 c-276 -1 -503 -1 -505 1 -1 2 -6 25 -9 51 l-7 48 472 -3 473 -4 38 -45z
m80 -260 c0 -25 -4 -30 -24 -30 -14 0 -28 5 -32 11 -3 6 -20 19 -38 30 l-31
19 63 0 62 0 0 -30z m-139 10 c20 -6 44 -19 53 -29 16 -18 15 -19 -49 -31 -36
-7 -65 -17 -65 -22 0 -6 12 -8 28 -5 160 35 205 31 264 -22 l32 -29 -44 -7
c-54 -9 -110 -31 -110 -43 0 -5 26 0 57 10 107 36 188 0 181 -80 -3 -34 -5
-35 -73 -52 -147 -37 -239 -85 -624 -322 -450 -277 -705 -379 -915 -366 -143
9 -264 106 -349 280 -45 90 -95 244 -83 255 7 8 786 333 796 333 4 0 10 -19
14 -42 18 -117 40 -218 49 -218 5 0 7 14 3 33 -4 17 -10 52 -13 78 l-5 45 205
77 c388 145 550 184 648 157z m-649 -137 c-112 -41 -205 -73 -208 -70 -3 2 -8
37 -11 76 l-6 71 214 0 214 -1 -203 -76z m-2822 -161 c0 -16 -213 -517 -225
-530 -1 -2 -29 9 -60 23 -80 35 -135 83 -170 146 -28 51 -30 60 -30 169 0 65
6 133 13 158 l13 42 229 0 c127 0 230 -4 230 -8z m3829 -51 c7 -16 11 -45 9
-66 -6 -76 -68 -94 -333 -94 -164 0 -164 -3 10 86 114 59 231 102 276 103 20
0 30 -7 38 -29z"/>
<path d="M5642 6754 c-34 -23 -27 -83 11 -104 24 -13 30 -13 55 0 37 21 44 81
10 104 -12 9 -29 16 -38 16 -9 0 -26 -7 -38 -16z m68 -18 c28 -35 -11 -93 -47
-70 -36 22 -23 84 17 84 10 0 23 -7 30 -14z"/>
<path d="M5795 6745 c-32 -31 -31 -50 1 -81 19 -20 31 -24 52 -19 55 13 69 70
26 104 -34 27 -50 26 -79 -4z m69 -11 c9 -8 16 -22 16 -29 0 -7 -7 -21 -16
-29 -8 -9 -22 -16 -29 -16 -7 0 -21 7 -29 16 -9 8 -16 22 -16 29 0 7 7 21 16
29 8 9 22 16 29 16 7 0 21 -7 29 -16z"/>
<path d="M5491 6741 c-26 -26 -26 -46 -1 -71 11 -11 27 -20 35 -20 18 0 55 35
55 53 0 43 -59 68 -89 38z"/>
<path d="M5470 6570 c21 -14 2497 -14 2505 0 4 7 -417 10 -1257 10 -819 0
-1258 -4 -1248 -10z"/>
<path d="M6991 5730 c-74 -18 -113 -79 -76 -120 12 -14 26 -17 55 -13 32 5 45
1 71 -21 32 -27 79 -33 86 -10 2 7 -6 10 -21 7 -18 -4 -35 3 -57 22 -27 22
-40 26 -78 23 -43 -3 -46 -1 -49 23 -4 34 38 69 82 70 30 0 83 17 59 18 -6 1
-17 3 -25 5 -7 2 -28 0 -47 -4z"/>
<path d="M4275 5810 c3 -5 33 -10 66 -10 33 0 59 4 59 10 0 6 -29 10 -66 10
-41 0 -63 -4 -59 -10z"/>
<path d="M4285 5680 c28 -12 115 -12 115 0 0 6 -29 10 -67 9 -47 0 -62 -3 -48
-9z"/>
<path d="M4280 5650 c20 -13 107 -13 115 0 4 6 -19 10 -62 10 -48 0 -63 -3
-53 -10z"/>
<path d="M1566 5592 c-7 -12 22 -38 31 -28 4 3 0 14 -9 22 -9 10 -18 12 -22 6z"/>
<path d="M5545 5500 c-3 -5 3 -10 15 -10 18 0 20 -4 14 -35 -7 -40 10 -49 20
-10 11 43 -29 88 -49 55z"/>
<path d="M710 4211 c0 -6 16 -29 36 -51 59 -65 201 -121 302 -119 27 0 11 6
-58 23 -119 27 -158 46 -226 109 -30 27 -54 44 -54 38z"/>
<path d="M8330 4862 c0 -5 26 -27 58 -49 75 -52 82 -56 82 -45 0 6 -22 26 -48
45 -61 44 -92 60 -92 49z"/>
<path d="M2320 3366 c0 -8 81 -49 86 -43 8 7 -31 35 -58 42 -16 4 -28 5 -28 1z"/>
<path d="M8325 6274 c-73 -38 -115 -101 -115 -174 0 -46 11 -73 46 -110 22
-24 22 -26 8 -80 -20 -73 -14 -183 12 -211 26 -29 50 -40 102 -48 43 -6 47 -9
54 -41 5 -27 3 -38 -9 -47 -15 -11 -14 -13 10 -13 29 0 31 6 18 62 -8 36 -8
36 35 53 24 9 66 37 94 62 58 52 52 59 90 -94 21 -88 24 -93 49 -93 l26 0 -21
18 c-15 12 -29 46 -44 112 l-23 95 26 38 c22 32 26 49 25 106 0 37 3 81 6 98
9 40 -10 146 -35 195 -23 46 -45 58 -102 58 -25 0 -61 7 -80 15 -47 19 -134
19 -172 -1z m130 -216 c22 -5 55 -21 73 -34 29 -23 32 -30 32 -80 0 -65 14
-75 66 -50 53 25 64 21 64 -19 0 -36 -35 -85 -61 -85 -6 0 -35 -22 -65 -49
-64 -59 -107 -75 -182 -69 -47 4 -60 10 -85 38 -29 32 -29 35 -24 114 6 89 47
223 74 243 16 12 26 11 108 -9z"/>
<path d="M8634 5860 c-23 -9 -39 -28 -31 -36 6 -6 67 29 67 39 0 9 -9 8 -36
-3z"/>
<path d="M4280 5540 c0 -6 27 -10 60 -10 33 0 60 4 60 10 0 6 -27 10 -60 10
-33 0 -60 -4 -60 -10z"/>
<path d="M4280 5510 c0 -6 27 -10 60 -10 33 0 60 4 60 10 0 6 -27 10 -60 10
-33 0 -60 -4 -60 -10z"/>
<path d="M4275 5480 c3 -5 33 -10 66 -10 33 0 59 4 59 10 0 6 -29 10 -66 10
-41 0 -63 -4 -59 -10z"/>
<path d="M7513 4151 c-26 -17 -37 -18 -66 -9 -47 14 -85 3 -100 -29 l-11 -26
-106 7 c-158 9 -341 25 -377 32 -24 4 -42 0 -68 -15 -32 -18 -52 -21 -164 -21
-70 0 -156 -3 -190 -6 l-61 -7 0 -699 c0 -464 3 -697 10 -693 7 4 10 245 10
691 l0 684 154 0 c85 0 161 2 168 5 11 5 14 -5 14 -43 -1 -37 6 -58 28 -92 24
-36 26 -46 17 -67 -23 -50 -14 -83 34 -127 26 -25 45 -51 45 -63 0 -12 5 -34
10 -49 8 -20 6 -60 -6 -150 -19 -135 -12 -220 23 -292 21 -42 88 -82 139 -82
35 0 32 7 50 -137 4 -29 10 -53 15 -53 12 0 12 2 -12 185 -11 88 -24 164 -30
170 -11 11 -11 -17 0 -94 l8 -53 -45 5 c-82 9 -116 51 -133 162 -10 59 -1 200
17 271 l5 21 59 -21 59 -21 24 23 c31 29 61 28 87 -5 25 -32 21 -72 -12 -137
-20 -39 -20 -41 -3 -73 26 -48 117 -131 172 -156 36 -16 66 -21 121 -21 66 1
73 -1 77 -20 2 -12 14 -72 26 -133 12 -62 26 -113 31 -113 5 0 7 12 4 28 -3
15 -15 78 -26 139 l-21 112 30 38 c16 21 37 55 46 76 8 20 17 37 20 37 2 0 34
-7 72 -16 116 -26 207 -55 236 -76 22 -16 27 -16 27 -5 0 25 -75 53 -270 102
-284 72 -390 118 -390 170 0 38 40 58 105 53 43 -4 71 -15 132 -53 110 -68
183 -108 189 -102 3 2 -65 49 -150 103 -160 101 -307 216 -338 262 -32 49 -15
112 30 112 9 0 87 -52 172 -115 85 -63 161 -115 168 -115 17 0 -12 24 -179
148 -75 55 -146 113 -158 128 -23 29 -28 73 -9 92 36 36 126 0 298 -122 101
-72 149 -100 157 -93 2 3 -66 54 -152 113 -156 108 -171 124 -163 174 9 66 74
50 239 -58 172 -113 160 -106 153 -88 -3 8 -55 47 -116 88 -61 40 -116 76
-122 81 -17 11 22 37 56 37 47 0 145 -55 484 -273 214 -136 204 -131 204 -118
0 8 -182 130 -385 257 l-70 44 938 0 937 0 0 -920 0 -920 -167 -1 c-93 0 -177
-4 -188 -9 -12 -5 56 -9 172 -9 192 -1 193 -1 198 22 9 36 1 1845 -8 1854 -5
4 -444 10 -975 13 l-967 5 -68 38 c-77 42 -117 46 -164 18z m-173 -101 c0 -11
-14 -11 -50 0 -22 7 -21 8 13 9 20 1 37 -3 37 -9z"/>
<path d="M2206 3857 c-21 -134 -94 -274 -198 -382 -42 -43 -76 -81 -74 -82 7
-7 99 83 142 140 78 104 152 285 142 350 -2 13 -7 3 -12 -26z"/>
<path d="M7050 3530 c-14 -14 -20 -33 -20 -62 0 -50 17 -41 22 12 3 30 7 36
33 40 30 6 30 6 8 18 -19 11 -26 9 -43 -8z"/>
<path d="M9795 2020 c-4 -16 -20 -41 -37 -55 l-30 -25 -619 0 c-406 0 -619 -3
-619 -10 0 -6 37 -10 90 -10 l90 0 0 -129 c0 -144 -11 -173 -70 -186 -36 -8
-50 -25 -20 -25 31 0 75 28 94 60 12 22 16 55 16 154 l0 126 518 0 c501 0 518
1 550 20 40 25 81 110 53 110 -5 0 -12 -13 -16 -30z"/>
<path d="M2497 1933 c-13 -12 -7 -20 16 -19 20 1 28 -18 97 -226 69 -209 90
-262 90 -229 0 21 -141 455 -152 469 -11 13 -40 16 -51 5z"/>
<path d="M6750 1785 c0 -49 5 -97 10 -105 7 -10 10 13 10 75 0 50 -5 97 -10
105 -7 10 -10 -13 -10 -75z"/>
</g>
</svg>
